<svg xmlns="http://www.w3.org/2000/svg" viewBox="0 0 720 420" role="img" aria-labelledby="title desc">
  <title id="title">Patient portal</title>
  <desc id="desc">Illustration of an elderly patient using a health support device.</desc>
  <defs>
    <linearGradient id="bg" x1="0" x2="1" y1="0" y2="1"><stop offset="0" stop-color="#e8fff8"/><stop offset="1" stop-color="#d8ecff"/></linearGradient>
    <linearGradient id="card" x1="0" x2="1"><stop offset="0" stop-color="#00a887"/><stop offset="1" stop-color="#1464e6"/></linearGradient>
  </defs>
  <rect width="720" height="420" rx="34" fill="url(#bg)"/><circle cx="570" cy="86" r="78" fill="#ffffff" opacity=".55"/><circle cx="122" cy="320" r="94" fill="#fff4cf" opacity=".72"/>
  <rect x="382" y="108" width="184" height="230" rx="28" fill="#fff" stroke="#b7d9ea" stroke-width="6"/><rect x="414" y="142" width="120" height="18" rx="9" fill="#d6eef8"/><rect x="414" y="181" width="98" height="18" rx="9" fill="#d6eef8"/><path d="M414 237h42l18-34 28 72 18-38h36" fill="none" stroke="#00a887" stroke-width="12" stroke-linecap="round" stroke-linejoin="round"/>
  <circle cx="255" cy="144" r="58" fill="#f7c8a4"/><path d="M197 142c10-70 108-86 130-9-36-3-65-23-84-50-10 30-26 49-46 59z" fill="#405066"/><path d="M154 350c16-90 62-138 115-138s99 48 115 138" fill="#ffffff"/><path d="M180 350c13-59 47-91 89-91s76 32 89 91" fill="url(#card)"/><circle cx="233" cy="145" r="6" fill="#233044"/><circle cx="278" cy="145" r="6" fill="#233044"/><path d="M238 176c20 17 43 16 61-1" fill="none" stroke="#8d4b3a" stroke-width="7" stroke-linecap="round"/><rect x="116" y="68" width="128" height="42" rx="21" fill="#fff" opacity=".92"/><path d="M147 89h21m-10-10v20" stroke="#00a887" stroke-width="8" stroke-linecap="round"/><rect x="178" y="80" width="42" height="8" rx="4" fill="#9cc7d8"/>
</svg>
