<svg xmlns="http://www.w3.org/2000/svg" viewBox="0 0 720 420" role="img" aria-labelledby="title desc">
  <title id="title">Family portal</title>
  <desc id="desc">Illustration of a family caregiver connected to patient updates.</desc>
  <defs>
    <linearGradient id="bg" x1="0" x2="1" y1="0" y2="1">
      <stop offset="0" stop-color="#fff6dc"/>
      <stop offset="1" stop-color="#e5f9ff"/>
    </linearGradient>
    <linearGradient id="heart" x1="0" x2="1">
      <stop offset="0" stop-color="#e6a700"/>
      <stop offset="1" stop-color="#00a887"/>
    </linearGradient>
  </defs>
  <rect width="720" height="420" rx="34" fill="url(#bg)"/>
  <circle cx="552" cy="126" r="82" fill="#fff" opacity=".7"/>
  <rect x="430" y="190" width="150" height="120" rx="24" fill="#fff" stroke="#ecd38a" stroke-width="6"/>
  <path d="M505 274c-44-30-66-56-54-82 10-22 39-23 54-3 15-20 44-19 54 3 12 26-10 52-54 82z" fill="url(#heart)"/>
  <circle cx="238" cy="138" r="48" fill="#f0bd98"/>
  <path d="M191 138c8-58 75-77 103-34 9 14 11 30 7 44-41 0-70-18-87-45-5 16-12 28-23 35z" fill="#5b4b45"/>
  <circle cx="330" cy="158" r="38" fill="#e7b48e"/>
  <path d="M296 155c8-47 67-57 82-8-29 2-51-9-66-29-4 17-9 29-16 37z" fill="#3f5065"/>
  <path d="M154 350c12-86 52-136 92-136s80 50 92 136" fill="#fff"/>
  <path d="M275 350c9-67 40-105 75-105s66 38 75 105" fill="#fff"/>
  <path d="M190 350c9-45 30-72 56-72s47 27 56 72" fill="#e6a700"/>
  <path d="M310 350c7-34 22-55 40-55s33 21 40 55" fill="#00a887"/>
  <circle cx="222" cy="140" r="5" fill="#233044"/>
  <circle cx="257" cy="140" r="5" fill="#233044"/>
  <path d="M226 166c15 11 31 11 45 0" fill="none" stroke="#7b4638" stroke-width="6" stroke-linecap="round"/>
  <circle cx="316" cy="158" r="5" fill="#233044"/>
  <circle cx="344" cy="158" r="5" fill="#233044"/>
</svg>
